<?xml version="1.0" encoding="utf-8"?>
<!-- Generated by IcoMoon.io -->
<!DOCTYPE svg PUBLIC "-//W3C//DTD SVG 1.1//EN" "http://www.w3.org/Graphics/SVG/1.1/DTD/svg11.dtd">
<svg version="1.1" xmlns="http://www.w3.org/2000/svg" xmlns:xlink="http://www.w3.org/1999/xlink" width="100" height="100" viewBox="0 0 512 512">
<g>
</g>
	<path d="M232.694 30.648c-2.171 3.584-2.099 7.127-2.028 10.578 0.123 5.52-0.071 10.701-3.461 13.209-5.376 3.943-11.95 8.048-18.268 12.042-19.65 12.37-32.624 20.531-30.023 33.495 1.044 5.069 4.925 11.55 17.674 13.639 44.841 7.516 59.535 19.856 61.010 25.344 0.266 1.014-0.502 2.345-2.325 3.87-10.393 8.745-41.584 13.343-78.387-3.87v0c-6.134-2.877-13.415-0.236-16.313 5.878-2.846 6.154-0.205 13.415 5.918 16.302v0c44.37 20.736 86.201 15.923 104.55 0.41 9.36-7.885 13.077-18.494 10.178-29.061-5.519-20.224-75.346-38.748-67.717-40.428 1.894-0.43 7.076-3.953 8.489-4.823 6.677-4.229 13.589-8.581 19.732-13.056 13.886-10.302 13.558-26.511 13.445-33.403-0.020-0.645-0.051-1.536-0.020-1.813-0.030 0.215-0.154 2.14-1.495 4.362v0c3.502-5.765 1.638-13.302-4.147-16.825-5.775-3.512-13.312-1.659-16.814 4.147v0z" fill="#000000" />
	<path d="M415.324 324.055c21.053-7.659 37.868-7.7 45.015-0.103 5.202 5.519 5.499 15.678 0.788 26.522-8.858 20.398-36.598 44.124-85.606 43.899-16.343-0.88-25.365 5.776-29.921 11.5-7.454 9.36-8.683 22.323-3.748 39.557v0c2.365 8.243 10.957 13.005 19.2 10.66 8.253-2.355 13.015-10.937 10.66-19.18v0c-2.611-9.165-1.546-12.165-1.505-12.175-0.164 0.358-0.676 0.942-1.055 1.116 0 0 1.423-0.676 5.478-0.461 64.86 0.297 102.339-33.515 114.964-62.556 9.738-22.405 7.188-45.455-6.635-60.16-9.513-10.076-32.317-24.535-78.254-7.783v0c-8.028 2.939-12.206 11.837-9.236 19.897 2.898 8.069 11.796 12.216 19.856 9.267v0z" fill="#000000" />
	<path d="M400.128 237.2c0-18.094-86.159-32.911-192.061-32.911-105.359 0-191.498 14.817-191.498 32.911 0 2.069 1.218 4.096 3.226 6.042 126.064 0 251.586 0 377.088 0 2.007-1.946 3.246-3.973 3.246-6.042z" fill="#000000" />
	<path d="M208.066 272.804c94.208 0 172.574-12.636 188.815-29.542-125.501 0-251.024 0-377.088 0 16.251 16.906 94.587 29.542 188.273 29.542z" fill="#000000" />
	<path d="M132.885 487.281c49.94 0 99.881 0 149.801 0 0-4.721 0-9.401 0-14.121h-149.299c-0.41 3.646 0.030 11.52-0.502 14.121z" fill="#000000" />
	<path d="M399.575 263.946c-0.911 0-1.802 0-2.704 0-16.24 15.698-94.608 27.413-188.815 27.413-93.675 0-172.022-11.725-188.273-27.413-0.891 0-1.802 0-2.703 0-0.973 89.754 35.553 148.091 100.004 191.938h180.982c64.584-46.909 98.447-110.408 101.509-191.938z" fill="#000000" />
</svg>
